# AST/ASF file generated using VICON BodyLanguage
# -----------------------------------------------
:version 1.10
:name VICON
:units
  mass 1.0
  length 0.45
  angle deg
:documentation
   .ast/.asf automatically generated from VICON data using
   VICON BodyBuilder and BodyLanguage model FoxedUp or BRILLIANT.MOD
:root
   order TX TY TZ RX RY RZ
   axis XYZ
   position 0 0 0  
   orientation 0 0 0 
:bonedata
  begin
     id 1 
     name lhipjoint
     direction 0.584852 -0.759097 0.285867 
     length 2.43633 
     axis 0 0 0  XYZ
  end
  begin
     id 2 
     name lfemur
     direction 0.34202 -0.939693 0  
     length 7.14704  
     axis 0 0 20  XYZ
    dof rx ry rz
    limits (-160.0 20.0)
           (-70.0 70.0)
           (-60.0 70.0)
  end
  begin
     id 3 
     name ltibia
     direction 0.342022 -0.939692 0   
     length 7.68483   
     axis 0 0 20   XYZ
    dof rx
    limits (-10.0 170.0)
  end
  begin
     id 4 
     name lfoot
     direction 0.0999605 -0.274639 0.956337   
     length 2.40452   
     axis -90 7.62852e-016 20   XYZ
    dof rx rz
    limits (-45.0 90.0)
           (-70.0 20.0)
  end
  begin
     id 5 
     name ltoes
     direction 1.53468e-011 -4.21881e-011 1   
     length 1.19837   
     axis -90 7.62852e-016 20   XYZ
    dof rx
    limits (-90.0 20.0)
  end
  begin
     id 6 
     name rhipjoint
     direction -0.569886 -0.769002 0.289597   
     length 2.40495  
     axis 0 0 0  XYZ 
  end
  begin
     id 7 
     name rfemur
     direction -0.34202 -0.939693 0   
     length 7.45086   
     axis 0 0 -20   XYZ
    dof rx ry rz
    limits (-160.0 20.0)
           (-70.0 70.0)
           (-70.0 60.0)
  end
  begin
     id 8 
     name rtibia
     direction -0.34202 -0.939693 0   
     length 7.76831   
     axis 0 0 -20   XYZ
    dof rx
    limits (-10.0 170.0)
 end
 begin
     id 9 
     name rfoot
     direction -0.0798572 -0.219406 0.97236   
     length 2.35911  
     axis -90 -7.62852e-016 -20   XYZ
    dof rx rz
    limits (-45.0 90.0)
           (-20.0 70.0)
  end
  begin
     id 10 
     name rtoes
     direction -1.53469e-011 -4.21728e-011 1   
     length 1.18261   
     axis -90 -7.62852e-016 -20   XYZ
    dof rx
    limits (-90.0 20.0)
  end
  begin
     id 11 
     name lowerback
     direction 0.0242088 0.999437 0.0232389   
     length 2.1561   
     axis 0 0 0   XYZ
    dof rx ry rz
    limits (-20.0 45.0)
           (-30.0 30.0)
           (-30.0 30.0)
  end
  begin
     id 12 
     name upperback
     direction -0.0356893 0.999013 -0.0264323   
     length 2.14431   
     axis 0 0 0   XYZ
    dof rx ry rz
    limits (-20.0 45.0)
           (-30.0 30.0)
           (-30.0 30.0)
  end
  begin
     id 13 
     name thorax
     direction -0.0472163 0.998194 -0.0371284   
     length 2.16169   
     axis 0 0 0   XYZ
    dof rx ry rz
    limits (-20.0 45.0)
           (-30.0 30.0)
           (-30.0 30.0)
  end
  begin
     id 14 
     name lowerneck
     direction 0.00863244 0.999921 0.00911972   
     length 1.58651   
     axis 0 0 0   XYZ
    dof rx ry rz
    limits (-20.0 45.0)
           (-30.0 30.0)
           (-30.0 30.0)
  end
  begin
     id 15 
     name upperneck
     direction 0.149523 0.979068 -0.138086   
     length 1.57486   
     axis 0 0 0   XYZ
    dof rx ry rz
    limits (-20.0 45.0)
           (-30.0 30.0)
           (-30.0 30.0)
  end
  begin
     id 16
     name head
     direction 0.0445219 0.997708 -0.0509576  
     length 1.6019  
     axis 0 0 0   XYZ
    dof rx ry rz
    limits (-20.0 45.0)
           (-30.0 30.0)
           (-30.0 30.0)
  end
  begin
     id 17 
     name lclavicle
     direction 0.911271 0.381667 -0.154644  
     length 3.80848  
     axis 0 0 0   XYZ
    dof ry rz
    limits (-20.0 10.0)
           (0.0 20.0)
  end
  begin
     id 18 
     name lhumerus
     direction 1 -4.49003e-011 2.1308e-027   
     length 5.19069   
     axis 180 -30 -90   XYZ
    dof rx ry rz
    limits (-60.0 90.0)
           (-90.0 90.0)
           (-90.0 90.0)
  end
  begin
     id 19
     name lradius
     direction 1 -4.48914e-011 4.01554e-027   
     length 3.30016   
     axis 180 -30 -90   XYZ
    dof rx
    limits (-10.0 170.0)
  end
  begin
     id 20
     name lwrist
     direction 1 -4.49003e-011 1.1934e-026   
     length 1.65008   
     axis -8.46377e-015 90 90   XYZ
    dof ry
    limits (-180.0 0.0)
 end
  begin
     id 21 
     name lhand
     direction 1 -4.49034e-011 2.38659e-026   
     length 0.707698   
     axis -1.52313e-014 90 90   XYZ
    dof rx rz
    limits (-90.0 90.0)
           (-45.0 45.0)
  end
  begin
     id 22 
     name lfingers
     direction 1 -4.48691e-011 4.77775e-026   
     length 0.570564   
     axis -3.04623e-014 90 90   XYZ
    dof rx
    limits (0.0 90.0)
  end
  begin
     id 23
     name lthumb
     direction 0.707107 -6.34832e-011 0.707107   
     length 0.819219   
     axis -90 45 -1.62303e-014   XYZ
    dof rx rz
    limits (-45.0 45.0)
           (-45.0 45.0)
  end
  begin
     id 24 
     name rclavicle
     direction -0.815579 0.573708 -0.0754329   
     length 3.54371  
     axis 0 0 0   XYZ 
    dof ry rz
    limits (-10.0 20.0)
           (-20.0 0.0)
  end
  begin
     id 25 
     name rhumerus
     direction -1 -4.48956e-011 3.05351e-028  
     length 5.23924   
     axis 180 30 90   XYZ
    dof rx ry rz
    limits (-90.0 60.0)
           (-90.0 90.0)
           (-90.0 90.0)
  end
  begin
     id 26 
     name rradius
     direction -1 -4.49013e-011 3.53849e-027   
     length 3.32953   
     axis 180 30 90   XYZ
    dof rx
    limits (-10.0 170.0)
  end
  begin
     id 27 
     name rwrist
     direction -1 -4.48901e-011 1.19374e-026   
     length 1.66477   
     axis -8.46377e-015 -90 -90   XYZ
    dof ry
    limits (-180.0 0.0)
  end
  begin
     id 28
     name rhand
     direction -1 -4.48877e-011 2.38764e-026   
     length 0.607414   
     axis -1.52313e-014 -90 -90   XYZ
    dof rx rz
    limits (-90.0 90.0)
           (-45.0 45.0)
  end
  begin
     id 29
     name rfingers
     direction -1 -4.48882e-011 4.77521e-026   
     length 0.489712   
     axis -3.04623e-014 -90 -90   XYZ
    dof rx
    limits (0.0 90.0)
  end
  begin
     id 30
     name rthumb
     direction -0.707107 -6.34974e-011 0.707107   
     length 0.703132   
     axis -90 -45 1.62303e-014   XYZ
    dof rx rz
    limits (-45.0 45.0)
           (-45.0 45.0)
  end
:hierarchy
  begin
    root lhipjoint rhipjoint lowerback
    lhipjoint lfemur
    lfemur ltibia
    ltibia lfoot
    lfoot ltoes
    rhipjoint rfemur
    rfemur rtibia
    rtibia rfoot
    rfoot rtoes
    lowerback upperback
    upperback thorax
    thorax lowerneck lclavicle rclavicle
    lowerneck upperneck
    upperneck head
    lclavicle lhumerus
    lhumerus lradius
    lradius lwrist
    lwrist lhand lthumb
    lhand lfingers
    rclavicle rhumerus
    rhumerus rradius
    rradius rwrist
    rwrist rhand rthumb
    rhand rfingers
  end

#!OML:ASF E:\VariousWalksJay\Project 1\Capture day 1\Session 1\Actor2.ASF
:FULLY-SPECIFIED
:DEGREES
543
root 13.7516 15.1195 -0.364122 7.61715 -38.2995 5.29565
lowerback 22.3941 -5.95663 3.81648
upperback 16.9373 -7.65978 -3.47638
thorax 5.41176 -3.56669 -4.56461
lowerneck 3.0375 1.60309 2.08746
upperneck -5.47925 2.21876 -0.618662
head -2.20854 1.07899 -0.61353
rclavicle -7.15625e-014 1.00187e-013
rhumerus -43.41 24.6087 -88.2816
rradius 99.0282
rwrist 15.4134
rhand -44.3539 0.837523
rfingers 7.12502
rthumb -17.1619 -28.4246
lclavicle -7.15625e-014 1.00187e-013
lhumerus 38.5831 -36.2264 53.5198
lradius 85.6587
lwrist 49.9534
lhand -41.5038 10.2301
lfingers 7.12502
lthumb -14.4171 39.7094
rfemur -61.2306 0.102982 23.6605
rtibia 31.1041
rfoot -19.5649 -16.5366
rtoes -18.4828
lfemur -28.8266 21.1736 -30.812
ltibia 72.3268
lfoot -22.2318 -27.242
ltoes -1.68032
544
root 13.6442 15.1429 -0.228181 7.90665 -37.8137 5.32525
lowerback 22.0443 -6.10807 4.00388
upperback 16.7388 -7.81537 -3.37827
thorax 5.32376 -3.63147 -4.54477
lowerneck 2.88584 1.57475 2.07479
upperneck -5.19857 2.17587 -0.619969
head -2.08962 1.05984 -0.605738
rclavicle -8.50798e-014 1.02573e-013
rhumerus -44.3921 24.1545 -88.4523
rradius 98.2281
rwrist 15.69
rhand -44.9795 1.37727
rfingers 7.12502
rthumb -17.764 -27.8313
lclavicle -8.50798e-014 1.02573e-013
lhumerus 37.5845 -37.2253 54.2548
lradius 85.9573
lwrist 49.4209
lhand -41.656 9.85723
lfingers 7.12502
lthumb -14.5637 39.326
rfemur -61.5622 -0.253486 23.5871
rtibia 32.1132
rfoot -18.8639 -17.5303
rtoes -17.0248
lfemur -28.0767 20.8316 -30.608
ltibia 71.6736
lfoot -22.037 -27.2081
ltoes -2.02552
545
root 13.5392 15.1665 -0.0929219 8.22737 -37.4122 5.32334
lowerback 21.7316 -6.22767 4.18782
upperback 16.5437 -7.93276 -3.27944
thorax 5.22743 -3.67858 -4.52764
lowerneck 2.72829 1.54102 2.08162
upperneck -4.97476 2.1259 -0.63784
head -1.98861 1.03669 -0.606964
rclavicle 2.54444e-014 -1.66979e-014
rhumerus -45.3224 23.7089 -88.5837
rradius 97.4214
rwrist 15.9544
rhand -45.5487 1.91176
rfingers 7.12502
rthumb -18.3115 -27.2463
lclavicle 2.54444e-014 -1.66979e-014
lhumerus 36.6342 -38.2135 54.963
lradius 86.2496
lwrist 48.8952
lhand -41.8172 9.48265
lfingers 7.12502
lthumb -14.7191 38.9401
rfemur -61.9645 -0.60557 23.6039
rtibia 33.11
rfoot -18.0547 -18.2712
rtoes -15.6161
lfemur -27.3608 20.481 -30.4118
ltibia 71.0111
lfoot -21.8739 -27.0932
ltoes -2.42685
546
root 13.4366 15.1905 0.0414893 8.57736 -37.1162 5.28298
lowerback 21.4674 -6.30742 4.35449
upperback 16.3539 -8.00319 -3.17498
thorax 5.12258 -3.70522 -4.50084
lowerneck 2.56938 1.50669 2.10207
upperneck -4.8167 2.07476 -0.678666
head -1.90893 1.01272 -0.618461
rclavicle -5.725e-014 4.81059e-014
rhumerus -46.1943 23.2847 -88.6704
rradius 96.6143
rwrist 16.181
rhand -46.0554 2.44117
rfingers 7.12502
rthumb -18.799 -26.6704
lclavicle -5.725e-014 4.81059e-014
lhumerus 35.7242 -39.175 55.661
lradius 86.5347
lwrist 48.3614
lhand -41.9706 9.11878
lfingers 7.12502
lthumb -14.8668 38.5654
rfemur -62.4112 -0.916872 23.6956
rtibia 34.0979
rfoot -17.1588 -18.768
rtoes -14.344
lfemur -26.6718 20.1417 -30.2188
ltibia 70.3373
lfoot -21.7715 -26.8851
ltoes -2.98716
547
root 13.3359 15.2143 0.17508 8.94299 -36.9414 5.21873
lowerback 21.255 -6.34564 4.49137
upperback 16.1703 -8.02577 -3.07457
thorax 5.00856 -3.71146 -4.46754
lowerneck 2.42267 1.47714 2.1243
upperneck -4.73014 2.03 -0.731184
head -1.85472 0.991625 -0.63502
rclavicle -6.04305e-014 9.66093e-014
rhumerus -47.0067 22.8931 -88.7235
rradius 95.8128
rwrist 16.3481
rhand -46.5015 2.97179
rfingers 7.12502
rthumb -19.228 -26.0977
lclavicle -6.04305e-014 9.66093e-014
lhumerus 34.8477 -40.0973 56.3401
lradius 86.8171
lwrist 47.838
lhand -42.1291 8.75863
lfingers 7.12502
lthumb -15.0195 38.1939
rfemur -62.8747 -1.16554 23.8335
rtibia 35.0835
rfoot -16.2236 -19.0377
rtoes -13.1812
lfemur -26.0008 19.8237 -30.0415
ltibia 69.6486
lfoot -21.6995 -26.6101
ltoes -3.5914
548
root 13.2365 15.2374 0.308459 9.30789 -36.8819 5.14725
lowerback 21.0891 -6.34291 4.58349
upperback 15.9982 -8.00337 -2.98043
thorax 4.89476 -3.69939 -4.4222
lowerneck 2.28601 1.45385 2.14473
upperneck -4.70557 1.99356 -0.789829
head -1.82238 0.974386 -0.65417
rclavicle 3.18055e-015 2.5842e-014
rhumerus -47.7558 22.54 -88.7469
rradius 95.0232
rwrist 16.4496
rhand -46.897 3.51654
rfingers 7.12502
rthumb -19.6083 -25.5146
lclavicle 3.18055e-015 2.5842e-014
lhumerus 33.9984 -40.9746 57.0149
lradius 87.0937
lwrist 47.3311
lhand -42.3032 8.38946
lfingers 7.12502
lthumb -15.1872 37.8121
rfemur -63.3237 -1.34916 23.9905
rtibia 36.073
rfoot -15.2992 -19.1239
rtoes -12.1793
lfemur -25.3309 19.5287 -29.8912
ltibia 68.9424
lfoot -21.6616 -26.2711
ltoes -4.23839
549
root 13.1378 15.2594 0.441767 9.66715 -36.9363 5.07481
lowerback 20.9601 -6.3007 4.62671
upperback 15.8405 -7.93865 -2.89874
thorax 4.78805 -3.66997 -4.36969
lowerneck 2.15903 1.43882 2.15916
upperneck -4.72861 1.96853 -0.839948
head -1.80717 0.962403 -0.670493
rclavicle 4.85035e-014 1.74931e-014
rhumerus -48.4371 22.2338 -88.7488
rradius 94.2533
rwrist 16.4833
rhand -47.2586 4.0615
rfingers 7.12502
rthumb -19.9559 -24.9338
lclavicle 4.85035e-014 1.74931e-014
lhumerus 33.1732 -41.7965 57.6843
lradius 87.3607
lwrist 46.841
lhand -42.4861 8.01223
lfingers 7.12502
lthumb -15.3634 37.4214
rfemur -63.7416 -1.47351 24.1681
rtibia 37.0645
rfoot -14.3912 -19.1012
rtoes -11.3882
lfemur -24.6621 19.2696 -29.7758
ltibia 68.2194
lfoot -21.6549 -25.8678
ltoes -4.94088
550
root 13.0393 15.2804 0.574906 10.016 -37.0706 5.01248
lowerback 20.8566 -6.23692 4.62135
upperback 15.6942 -7.85406 -2.83189
thorax 4.6876 -3.634 -4.30905
lowerneck 2.05272 1.43623 2.16245
upperneck -4.78557 1.96089 -0.875053
head -1.80653 0.958744 -0.68118
rclavicle -6.20208e-014 -5.96354e-015
rhumerus -49.0519 21.9936 -88.7466
rradius 93.5003
rwrist 16.4562
rhand -47.6133 4.61178
rfingers 7.12502
rthumb -20.2968 -24.3477
lclavicle -6.20208e-014 -5.96354e-015
lhumerus 32.3515 -42.551 58.3531
lradius 87.6144
lwrist 46.3739
lhand -42.6704 7.63172
lfingers 7.12502
lthumb -15.541 37.0272
rfemur -64.1236 -1.56696 24.3607
rtibia 38.0449
rfoot -13.5042 -19.043
rtoes -10.8219
lfemur -23.9937 19.0272 -29.6987
ltibia 67.4805
lfoot -21.6545 -25.4137
ltoes -5.64149
551
root 12.9409 15.3006 0.707684 10.3473 -37.2575 4.9631
lowerback 20.7767 -6.15934 4.57552
upperback 15.5604 -7.75801 -2.7819
thorax 4.59329 -3.59469 -4.24538
lowerneck 1.96359 1.44292 2.16884
upperneck -4.8571 1.96697 -0.892907
head -1.81353 0.961408 -0.687618
rclavicle -6.12257e-014 6.55989e-014
rhumerus -49.5921 21.8098 -88.7474
rradius 92.7548
rwrist 16.4064
rhand -47.9628 5.16834
rfingers 7.12502
rthumb -20.6327 -23.755
lclavicle -6.12257e-014 6.55989e-014
lhumerus 31.5397 -43.2455 59.0123
lradius 87.8484
lwrist 45.925
lhand -42.8557 7.24825
lfingers 7.12502
lthumb -15.7194 36.6298
rfemur -64.4616 -1.64971 24.5656
rtibia 38.9921
rfoot -12.6418 -18.9643
rtoes -10.4599
lfemur -23.3185 18.7935 -29.655
ltibia 66.7293
lfoot -21.6521 -24.9133
ltoes -6.33563
552
root 12.8425 15.3201 0.839613 10.6861 -37.4869 4.91138
lowerback 20.6965 -6.07317 4.50375
upperback 15.434 -7.65573 -2.74598
thorax 4.50905 -3.55337 -4.18445
lowerneck 1.89297 1.459 2.17719
upperneck -4.92952 1.98702 -0.891881
head -1.82402 0.970607 -0.688977
rclavicle 2.22639e-014 -1.19271e-015
rhumerus -50.056 21.6849 -88.7577
rradius 92.0148
rwrist 16.3659
rhand -48.3078 5.72434
rfingers 7.12502
rthumb -20.9641 -23.1627
lclavicle 2.22639e-014 -1.19271e-015
lhumerus 30.7348 -43.8775 59.6574
lradius 88.0572
lwrist 45.4862
lhand -43.0458 6.87023
lfingers 7.12502
lthumb -15.9024 36.2373
rfemur -64.7744 -1.72034 24.7902
rtibia 39.8821
rfoot -11.7913 -18.845
rtoes -10.217
lfemur -22.6664 18.5673 -29.6344
ltibia 65.9749
lfoot -21.6121 -24.3889
ltoes -6.955
